<svg width="110" height="21" xmlns="http://www.w3.org/2000/svg">
    <path d="M10.476 19.842c-5.191 0-9.438-4.248-9.438-9.44V.963h9.438c5.192 0 9.44 4.248 9.44 9.44 0 3.985-2.505 7.414-6.017 8.793v-3.857a6.027 6.027 0 0 0 2.594-4.937c0-3.302-2.714-6.016-6.017-6.016H4.46v6.016c0 2.71 1.826 5.022 4.305 5.766V8.816h3.423v10.869a9.393 9.393 0 0 1-1.712.157" style="fill:#fff;fill-opacity:1;fill-rule:evenodd;stroke:none;stroke-width:.133332"/>
    <text xml:space="preserve" style="font-style:normal;font-variant:normal;font-weight:400;font-stretch:normal;font-size:13.3333px;font-family:Audiowide;-inkscape-font-specification:Audiowide;text-align:center;text-anchor:middle;fill:#fff;stroke-width:23.52;paint-order:markers fill stroke" x="66.167" y="15.052"><tspan x="66.167" y="15.052" style="font-style:normal;font-variant:normal;font-weight:400;font-stretch:normal;font-size:13.3333px;font-family:Audiowide;-inkscape-font-specification:Audiowide;fill:#fff">OSLUMEN</tspan></text>
</svg>
